<?xml version="1.0" encoding="utf-8"?>
<!-- Generator: Adobe Illustrator 23.0.6, SVG Export Plug-In . SVG Version: 6.00 Build 0)  -->
<svg role="none" focusable="false" aria-hidden="true" version="1.1" xmlns="http://www.w3.org/2000/svg" xmlns:xlink="http://www.w3.org/1999/xlink" x="0px" y="0px"
	 viewBox="0 0 96 96" style="enable-background:new 0 0 96 96;" xml:space="preserve">
<style type="text/css">
	.st0{display:none;}
	.st1{display:inline;}
	.st2{fill:none;stroke:#1D1D24;stroke-width:1.0206;stroke-linecap:round;stroke-linejoin:round;stroke-miterlimit:10;}
	
		.st3{display:inline;fill:none;stroke:#1D1D24;stroke-width:1.0206;stroke-linecap:round;stroke-linejoin:round;stroke-miterlimit:10;}
	.st4{fill:none;stroke:#1D1D24;stroke-linecap:round;stroke-linejoin:round;stroke-miterlimit:10;}
	.st5{display:inline;fill:none;stroke:#1D1D24;stroke-linecap:round;stroke-linejoin:round;stroke-miterlimit:10;}
	.st6{display:inline;fill:#1D1D24;}
	.st7{display:inline;fill:none;stroke:#1D1D24;stroke-width:2;stroke-linejoin:round;stroke-miterlimit:10;}
	.st8{display:inline;fill:none;stroke:#1D1D24;stroke-width:2;stroke-linecap:round;stroke-linejoin:round;stroke-miterlimit:10;}
	.st9{clip-path:url(#SVGID_2_);fill:none;stroke:#1D1D24;stroke-width:2;stroke-linejoin:round;stroke-miterlimit:10;}
	.st10{display:inline;fill:none;stroke:#1D1D24;stroke-miterlimit:10;}
	.st11{display:inline;fill:none;stroke:#1D1D24;stroke-linecap:round;stroke-miterlimit:10;}
	.st12{fill:none;stroke:#1D1D24;stroke-width:2;stroke-linecap:round;stroke-linejoin:round;stroke-miterlimit:10;}
	.st13{display:inline;fill:none;stroke:#1D1D24;stroke-width:2;stroke-linecap:square;stroke-miterlimit:10;}
	.st14{display:inline;fill:none;stroke:#1D1D24;stroke-width:2;stroke-linecap:round;stroke-miterlimit:10;}
	.st15{display:inline;fill:none;stroke:#1D1D24;stroke-width:2;stroke-miterlimit:10;}
	.st16{fill:none;stroke:#1D1D24;stroke-width:2;stroke-miterlimit:10;}
	.st17{display:inline;fill:none;stroke:#00FFB3;stroke-width:5.500000e-02;stroke-linecap:round;}
	.st18{display:inline;fill:none;stroke:#B300B3;stroke-width:5.500000e-02;stroke-linecap:round;}
	.st19{display:inline;fill:none;stroke:#FFB300;stroke-width:5.500000e-02;stroke-linecap:round;}
	.st20{fill:none;stroke:#CCCCCC;stroke-width:5.000000e-02;stroke-linecap:round;stroke-dasharray:5.000000e-02,0.2;}
	
		.st21{display:inline;fill:none;stroke:#CCCCCC;stroke-width:5.000000e-02;stroke-linecap:round;stroke-dasharray:5.000000e-02,0.2;}
	.st22{display:inline;fill:none;stroke:#B3B3B3;stroke-width:5.000000e-02;stroke-linecap:round;}
	.st23{fill:none;stroke:#00FFB3;stroke-width:5.500000e-02;stroke-linecap:round;}
	.st24{fill:none;stroke:#B300B3;stroke-width:5.500000e-02;stroke-linecap:round;}
	.st25{fill:none;stroke:#FFB300;stroke-width:5.500000e-02;stroke-linecap:round;}
	.st26{fill:none;stroke:#B3B3B3;stroke-width:5.000000e-02;stroke-linecap:round;}
	.st27{fill:none;stroke:#00FFB3;stroke-width:2.813953e-02;stroke-linecap:round;}
	.st28{fill:none;stroke:#B300B3;stroke-width:2.720587e-02;stroke-linecap:round;}
	.st29{fill:none;stroke:#FFB300;stroke-width:2.720587e-02;stroke-linecap:round;}
	.st30{fill:none;stroke:#CCCCCC;stroke-width:2.446808e-02;stroke-linecap:round;stroke-dasharray:2.446808e-02,9.787234e-02;}
	.st31{fill:none;stroke:#B3B3B3;stroke-width:2.446808e-02;stroke-linecap:round;}
	.st32{fill:none;stroke:#B3B3B3;stroke-width:2.558140e-02;stroke-linecap:round;}
	.st33{display:inline;fill:none;stroke:#00FFB3;stroke-width:6.599999e-02;stroke-linecap:round;}
	.st34{display:inline;fill:none;stroke:#B300B3;stroke-width:6.093029e-02;stroke-linecap:round;}
	.st35{display:inline;fill:none;stroke:#FFB300;stroke-width:6.093029e-02;stroke-linecap:round;}
	.st36{fill:none;stroke:#CCCCCC;stroke-width:5.742337e-02;stroke-linecap:round;stroke-dasharray:5.742337e-02,0.2297;}
	
		.st37{display:inline;fill:none;stroke:#CCCCCC;stroke-width:5.475969e-02;stroke-linecap:round;stroke-dasharray:5.475969e-02,0.219;}
	
		.st38{display:inline;fill:none;stroke:#CCCCCC;stroke-width:4.995151e-02;stroke-linecap:round;stroke-dasharray:4.995151e-02,0.1998;}
	
		.st39{display:inline;fill:none;stroke:#CCCCCC;stroke-width:5.993596e-02;stroke-linecap:round;stroke-dasharray:5.993596e-02,0.2397;}
	
		.st40{display:inline;fill:none;stroke:#CCCCCC;stroke-width:6.423818e-02;stroke-linecap:round;stroke-dasharray:6.423818e-02,0.257;}
	.st41{display:inline;fill:none;stroke:#B3B3B3;stroke-width:5.477093e-02;stroke-linecap:round;}
	.st42{display:inline;fill:none;stroke:#B3B3B3;stroke-width:5.478010e-02;stroke-linecap:round;}
	.st43{display:inline;fill:none;stroke:#B3B3B3;stroke-width:6.000000e-02;stroke-linecap:round;}
	.st44{fill:#1D1D24;}
	.st45{fill:none;stroke:#1D1D24;stroke-width:2;stroke-linecap:square;stroke-linejoin:round;}
	.st46{fill:none;stroke:#1D1D24;stroke-width:2;stroke-linecap:round;stroke-linejoin:round;}
	.st47{fill:none;stroke:#1D1D24;stroke-width:2;stroke-linejoin:round;}
	.st48{fill:none;stroke:#1D1D24;stroke-width:2;stroke-linecap:round;}
	.st49{fill:none;stroke:#1D1D24;stroke-width:4;stroke-linecap:round;stroke-linejoin:round;stroke-miterlimit:10;}
	.st50{clip-path:url(#SVGID_4_);fill:none;stroke:#1D1D24;stroke-width:2;stroke-linecap:round;stroke-linejoin:round;}
	.st51{clip-path:url(#SVGID_4_);fill:none;stroke:#1D1D24;stroke-width:2;stroke-linecap:round;}
	.st52{fill:none;stroke:#1D1D24;stroke-width:4;stroke-linecap:square;stroke-linejoin:round;}
	.st53{fill:none;stroke:#1D1D24;stroke-width:4;stroke-linecap:round;stroke-linejoin:round;}
	.st54{fill:none;stroke:#1D1D24;stroke-width:4;stroke-linejoin:round;}
	.st55{clip-path:url(#SVGID_6_);fill:none;stroke:#1D1D24;stroke-width:4;stroke-linecap:round;stroke-linejoin:round;}
	.st56{clip-path:url(#SVGID_6_);fill:none;stroke:#1D1D24;stroke-width:4;stroke-linecap:round;}
	.st57{opacity:0.66;fill:#A51033;}
	.st58{fill:none;stroke:#1D1D24;stroke-width:4.0526;stroke-linecap:square;stroke-linejoin:round;}
	.st59{fill:none;stroke:#1D1D24;stroke-width:4.0526;stroke-linejoin:round;}
	.st60{fill:none;stroke:#1D1D24;stroke-width:2.0263;stroke-linecap:square;stroke-linejoin:round;}
	.st61{fill:none;stroke:#1D1D24;stroke-width:2.0263;stroke-linejoin:round;}
	.st62{fill:none;stroke:#1D1D24;stroke-width:2;stroke-linejoin:round;stroke-miterlimit:10;}
	.st63{fill:none;stroke:#1D1D24;stroke-width:2;stroke-linecap:square;stroke-linejoin:round;stroke-miterlimit:10;}
	.st64{fill:none;stroke:#1D1D24;stroke-width:4;stroke-linejoin:round;stroke-miterlimit:10;}
	.st65{fill:none;stroke:#1D1D24;stroke-width:4;stroke-linecap:square;stroke-linejoin:round;stroke-miterlimit:10;}
	.st66{clip-path:url(#SVGID_8_);}
	.st67{clip-path:url(#SVGID_10_);}
	.st68{clip-path:url(#SVGID_12_);}
	.st69{fill:none;stroke:#1D1D24;stroke-width:4;stroke-miterlimit:10;}
	.st70{fill:none;stroke:#1D1D24;stroke-width:2;stroke-linecap:round;stroke-miterlimit:10;}
	.st71{fill:none;stroke:#1D1D24;stroke-width:4;stroke-linecap:round;stroke-miterlimit:10;}
	.st72{fill:none;stroke:#1D1D24;stroke-width:2.1909;stroke-linecap:round;stroke-linejoin:round;stroke-miterlimit:10;}
	.st73{fill:none;stroke:#1D1D24;stroke-width:2;stroke-linecap:square;stroke-miterlimit:10;}
	.st74{fill:none;stroke:#1D1D24;stroke-width:2;}
	.st75{fill:none;stroke:#1D1D24;stroke-width:4;}
	.st76{fill:none;stroke:#1D1D24;stroke-width:4;stroke-linecap:round;}
	.st77{fill:none;stroke:#1D1D24;stroke-width:2;stroke-linecap:square;}
	.st78{fill:none;stroke:#1D1D24;stroke-width:4;stroke-linecap:square;}
	.st79{fill:none;}
	.st80{fill:none;stroke:#1D1D24;stroke-width:4;stroke-linecap:square;stroke-miterlimit:10;}
</style>
<g class="st0">
</g>
<g class="st0">
	<g class="st1">
		<path class="st23" d="M87.1,91H8.9C6.8,91,5,89.2,5,87.1V8.9C5,6.8,6.8,5,8.9,5h78.2C89.2,5,91,6.8,91,8.9v78.2
			C91,89.2,89.2,91,87.1,91z"/>
		<path class="st24" d="M77.9,95H18.1c-2.3,0-4.1-1.8-4.1-4.1V5.1C14,2.8,15.8,1,18.1,1h59.8C80.2,1,82,2.8,82,5.1v85.8
			C82,93.2,80.2,95,77.9,95z"/>
		<path class="st25" d="M1,77.9V18.1C1,15.8,2.8,14,5.1,14h85.8c2.3,0,4.1,1.8,4.1,4.1v59.8c0,2.3-1.8,4.1-4.1,4.1H5.1
			C2.8,82,1,80.2,1,77.9z"/>
		<g>
			<line class="st20" x1="5.2" y1="5.2" x2="90.7" y2="90.7"/>
		</g>
		<line class="st20" x1="5.2" y1="90.7" x2="90.7" y2="5.2"/>
		<circle class="st20" cx="48" cy="48" r="13"/>
		<circle class="st20" cx="48" cy="48" r="22"/>
		<circle class="st20" cx="48" cy="48" r="31"/>
		<line class="st26" x1="48" y1="5.2" x2="48" y2="90.7"/>
		<line class="st26" x1="5" y1="48" x2="90.5" y2="48"/>
		<circle class="st26" cx="48" cy="48" r="43"/>
	</g>
</g>
<g>
	<path class="st53" d="M58.6,19.7c0-0.2,0-0.3,0-0.5c-3.3-1.2-6.9-1.9-10.6-1.9c-16.9,0-30.7,13.7-30.7,30.7c0,3.7,0.7,7.3,1.9,10.6
		c0.2,0,0.3,0,0.5,0c9.8,0,17.7,7.9,17.7,17.7c0,0.2,0,0.3,0,0.5c3.3,1.2,6.9,1.9,10.6,1.9c16.9,0,30.7-13.7,30.7-30.7
		c0-3.7-0.7-7.3-1.9-10.6c-0.2,0-0.3,0-0.5,0C66.5,37.4,58.6,29.5,58.6,19.7z"/>
	<path class="st64" d="M19.7,58.6c-0.2,0-0.3,0-0.5,0C9.7,58.9,2,66.7,2,76.3C2,86.1,9.9,94,19.7,94c9.6,0,17.4-7.7,17.7-17.2
		c0-0.2,0-0.3,0-0.5C37.4,66.5,29.5,58.6,19.7,58.6z"/>
	<path class="st64" d="M76.3,2c-9.6,0-17.4,7.7-17.7,17.2c0,0.2,0,0.3,0,0.5c0,9.8,7.9,17.7,17.7,17.7c0.2,0,0.3,0,0.5,0
		C86.3,37.1,94,29.3,94,19.7C94,9.9,86.1,2,76.3,2z"/>
	<line class="st53" x1="48" y1="17.3" x2="48" y2="78.7"/>
	<line class="st54" x1="17.3" y1="48.1" x2="78.7" y2="48.1"/>
	<line class="st54" x1="33.8" y1="65" x2="73.5" y2="65"/>
	<line class="st54" x1="20.5" y1="34.4" x2="66.9" y2="34.4"/>
	<ellipse class="st53" cx="48" cy="48" rx="16.5" ry="30.7"/>
	<path class="st64" d="M24.5,71.9c0,3.5-1.8,5.6-4.7,5.6S15,75.4,15,71.9s1.8-6.2,4.7-6.2S24.5,68.3,24.5,71.9z"/>
	<path class="st64" d="M30.4,90.2c-1.7-7.5-8.2-6.8-10.7-6.8h-0.1c-2.5,0-8.8-0.6-10.4,6.8"/>
	<path class="st64" d="M81.1,15.2c0,3.5-1.8,5.6-4.7,5.6s-4.7-2.1-4.7-5.6s1.8-6.2,4.7-6.2S81.1,11.7,81.1,15.2z"/>
	<path class="st64" d="M87,33.6c-1.7-7.5-8.2-6.8-10.7-6.8h-0.1c-2.5,0-8.8-0.6-10.4,6.8"/>
	<g>
		<path class="st44" d="M45.9,93C45.9,93,45.9,93,45.9,93L45.9,93c-1.1-0.1-1.9-1-1.9-2.1l0,0c0.1-1.1,1-1.9,2.1-1.9l0,0
			c1.1,0.1,1.9,1,1.9,2.1l0,0c-0.1,1.1-0.9,1.9-2,1.9l0,0C46,93,45.9,93,45.9,93z M54,91.3c-0.2-1.1,0.5-2.1,1.6-2.3l0,0
			c1.1-0.2,2.1,0.5,2.3,1.6l0,0c0.2,1.1-0.5,2.1-1.6,2.3l0,0c-0.1,0-0.2,0-0.3,0l0,0C55.1,93,54.2,92.3,54,91.3z M35.4,90.9
			c-1.1-0.3-1.7-1.4-1.3-2.5l0,0c0.3-1.1,1.4-1.7,2.5-1.4h0c1.1,0.3,1.7,1.4,1.4,2.5l0,0C37.7,90.4,36.9,91,36,91l0,0
			C35.8,91,35.6,91,35.4,90.9z M63.2,88.8c-0.4-1,0-2.2,1-2.6l0,0c1-0.4,2.2,0,2.6,1l0,0c0.4,1,0,2.2-1,2.6l0,0
			C65.5,89.9,65.3,90,65,90l0,0C64.2,90,63.5,89.5,63.2,88.8z M72.4,84.2c-0.7-0.9-0.5-2.1,0.4-2.8l0,0c0.9-0.7,2.1-0.5,2.8,0.4l0,0
			c0.7,0.9,0.5,2.1-0.4,2.8l0,0c0,0,0,0,0,0l0,0C74.8,84.9,74.4,85,74,85l0,0C73.4,85,72.8,84.7,72.4,84.2z M79.7,77.5
			c-0.8-0.7-1-2-0.2-2.8l0,0c0.7-0.9,2-1,2.8-0.2l0,0c0.8,0.7,1,2,0.2,2.8l0,0c-0.4,0.5-1,0.7-1.5,0.7l0,0
			C80.5,78,80.1,77.8,79.7,77.5z M86.1,69.8c-1-0.5-1.4-1.7-0.9-2.7l0,0c0.5-1,1.7-1.4,2.7-0.9l0,0c1,0.5,1.4,1.7,0.9,2.7l0,0l0,0
			l0,0C88.4,69.6,87.7,70,87,70l0,0C86.7,70,86.4,69.9,86.1,69.8z M89.5,59.9c-1.1-0.2-1.7-1.3-1.5-2.4l0,0c0.2-1.1,1.3-1.7,2.4-1.5
			l0,0c1.1,0.2,1.7,1.3,1.5,2.4l0,0c-0.2,0.9-1,1.6-2,1.6l0,0C89.8,60,89.7,60,89.5,59.9z M3,53.2c-0.1-1.1,0.7-2.1,1.8-2.2l0,0
			c1.1-0.1,2.1,0.7,2.2,1.8l0,0c0.1,1.1-0.7,2.1-1.8,2.2l0,0c-0.1,0-0.2,0-0.2,0l0,0C4,55,3.1,54.2,3,53.2z M4.8,45
			c-1.1-0.1-1.9-1.1-1.8-2.2l0,0c0.1-1.1,1.1-1.9,2.2-1.8l0,0c1.1,0.1,1.9,1.1,1.8,2.2l0,0c-0.1,1-1,1.8-2,1.8l0,0
			C4.9,45,4.9,45,4.8,45z M88.1,38.5c-0.3-1.1,0.4-2.2,1.5-2.4l0,0c1.1-0.3,2.2,0.4,2.4,1.5l0,0l0,0l0,0c0.3,1.1-0.4,2.2-1.5,2.4
			l0,0c-0.2,0-0.3,0-0.5,0l0,0C89.1,40,88.3,39.4,88.1,38.5z M6.3,34.9c-1-0.4-1.6-1.5-1.2-2.5l0,0c0.4-1,1.5-1.6,2.6-1.2l0,0
			c1,0.4,1.6,1.5,1.2,2.6l0,0C8.6,34.5,7.8,35,7,35l0,0C6.8,35,6.6,35,6.3,34.9z M10.9,25.7c-0.9-0.6-1.2-1.8-0.6-2.8l0,0l0,0l0,0
			c0.6-0.9,1.8-1.2,2.8-0.6l0,0c0.9,0.6,1.2,1.8,0.6,2.8l0,0c-0.4,0.6-1,0.9-1.7,0.9l0,0C11.6,26,11.2,25.9,10.9,25.7z M16.6,18.4
			c-0.8-0.8-0.7-2.1,0.1-2.8l0,0c0.8-0.8,2.1-0.7,2.8,0.1l0,0c0.8,0.8,0.7,2.1-0.1,2.8l0,0C19,18.8,18.5,19,18,19l0,0
			C17.5,19,16.9,18.8,16.6,18.4z M24.3,12C23.7,11,24,9.8,25,9.3l0,0c1-0.6,2.2-0.2,2.7,0.7l0,0c0.6,1,0.2,2.2-0.7,2.7l0,0
			c-0.3,0.2-0.7,0.3-1,0.3l0,0C25.3,13,24.6,12.6,24.3,12z M33.1,7.6c-0.3-1,0.3-2.2,1.3-2.5l0,0l0,0l0,0c1.1-0.3,2.2,0.3,2.5,1.3
			l0,0c0.3,1-0.3,2.2-1.3,2.5l0,0C35.4,9,35.2,9,35,9l0,0C34.1,9,33.4,8.4,33.1,7.6z M54.7,8c-1.1-0.2-1.8-1.2-1.6-2.3l0,0
			c0.2-1.1,1.2-1.8,2.3-1.6l0,0c1.1,0.2,1.8,1.2,1.6,2.3l0,0c-0.2,1-1,1.7-2,1.7l0,0C54.9,8,54.8,8,54.7,8z M43,5.1
			c-0.1-1.1,0.8-2,1.9-2.1l0,0c1.1-0.1,2,0.8,2.1,1.9l0,0c0.1,1.1-0.8,2-1.9,2.1l0,0c0,0-0.1,0-0.1,0l0,0C43.9,7,43.1,6.2,43,5.1z
			 M89.1,48.5c-0.3-1.1,0.4-2.2,1.5-2.4l0,0c1.1-0.3,2.2,0.4,2.4,1.5l0,0l0,0l0,0c0.3,1.1-0.4,2.2-1.5,2.4l0,0c-0.2,0-0.3,0-0.5,0
			l0,0C90.1,50,89.3,49.4,89.1,48.5z"/>
	</g>
</g>
</svg>
