<?xml version="1.0" encoding="utf-8"?>
<!-- Generator: Adobe Illustrator 23.0.6, SVG Export Plug-In . SVG Version: 6.00 Build 0)  -->
<svg role="none" focusable="false" aria-hidden="true" version="1.1" xmlns="http://www.w3.org/2000/svg" xmlns:xlink="http://www.w3.org/1999/xlink" x="0px" y="0px"
	 viewBox="0 0 96 96" style="enable-background:new 0 0 96 96;" xml:space="preserve">
<style type="text/css">
	.st0{display:none;}
	.st1{display:inline;}
	.st2{fill:none;stroke:#1D1D24;stroke-width:1.0206;stroke-linecap:round;stroke-linejoin:round;stroke-miterlimit:10;}
	
		.st3{display:inline;fill:none;stroke:#1D1D24;stroke-width:1.0206;stroke-linecap:round;stroke-linejoin:round;stroke-miterlimit:10;}
	.st4{fill:none;stroke:#1D1D24;stroke-linecap:round;stroke-linejoin:round;stroke-miterlimit:10;}
	.st5{display:inline;fill:none;stroke:#1D1D24;stroke-linecap:round;stroke-linejoin:round;stroke-miterlimit:10;}
	.st6{display:inline;fill:#1D1D24;}
	.st7{display:inline;fill:none;stroke:#1D1D24;stroke-width:2;stroke-linejoin:round;stroke-miterlimit:10;}
	.st8{display:inline;fill:none;stroke:#1D1D24;stroke-width:2;stroke-linecap:round;stroke-linejoin:round;stroke-miterlimit:10;}
	.st9{clip-path:url(#SVGID_2_);fill:none;stroke:#1D1D24;stroke-width:2;stroke-linejoin:round;stroke-miterlimit:10;}
	.st10{display:inline;fill:none;stroke:#1D1D24;stroke-miterlimit:10;}
	.st11{display:inline;fill:none;stroke:#1D1D24;stroke-linecap:round;stroke-miterlimit:10;}
	.st12{fill:none;stroke:#1D1D24;stroke-width:2;stroke-linecap:round;stroke-linejoin:round;stroke-miterlimit:10;}
	.st13{display:inline;fill:none;stroke:#1D1D24;stroke-width:2;stroke-linecap:square;stroke-miterlimit:10;}
	.st14{display:inline;fill:none;stroke:#1D1D24;stroke-width:2;stroke-linecap:round;stroke-miterlimit:10;}
	.st15{display:inline;fill:none;stroke:#1D1D24;stroke-width:2;stroke-miterlimit:10;}
	.st16{fill:none;stroke:#1D1D24;stroke-width:2;stroke-miterlimit:10;}
	.st17{display:inline;fill:none;stroke:#00FFB3;stroke-width:5.500000e-02;stroke-linecap:round;}
	.st18{display:inline;fill:none;stroke:#B300B3;stroke-width:5.500000e-02;stroke-linecap:round;}
	.st19{display:inline;fill:none;stroke:#FFB300;stroke-width:5.500000e-02;stroke-linecap:round;}
	.st20{fill:none;stroke:#CCCCCC;stroke-width:5.000000e-02;stroke-linecap:round;stroke-dasharray:5.000000e-02,0.2;}
	
		.st21{display:inline;fill:none;stroke:#CCCCCC;stroke-width:5.000000e-02;stroke-linecap:round;stroke-dasharray:5.000000e-02,0.2;}
	.st22{display:inline;fill:none;stroke:#B3B3B3;stroke-width:5.000000e-02;stroke-linecap:round;}
	.st23{fill:none;stroke:#00FFB3;stroke-width:5.500000e-02;stroke-linecap:round;}
	.st24{fill:none;stroke:#B300B3;stroke-width:5.500000e-02;stroke-linecap:round;}
	.st25{fill:none;stroke:#FFB300;stroke-width:5.500000e-02;stroke-linecap:round;}
	.st26{fill:none;stroke:#B3B3B3;stroke-width:5.000000e-02;stroke-linecap:round;}
	.st27{fill:none;stroke:#00FFB3;stroke-width:2.813953e-02;stroke-linecap:round;}
	.st28{fill:none;stroke:#B300B3;stroke-width:2.720587e-02;stroke-linecap:round;}
	.st29{fill:none;stroke:#FFB300;stroke-width:2.720587e-02;stroke-linecap:round;}
	.st30{fill:none;stroke:#CCCCCC;stroke-width:2.446808e-02;stroke-linecap:round;stroke-dasharray:2.446808e-02,9.787234e-02;}
	.st31{fill:none;stroke:#B3B3B3;stroke-width:2.446808e-02;stroke-linecap:round;}
	.st32{fill:none;stroke:#B3B3B3;stroke-width:2.558140e-02;stroke-linecap:round;}
	.st33{display:inline;fill:none;stroke:#00FFB3;stroke-width:6.599999e-02;stroke-linecap:round;}
	.st34{display:inline;fill:none;stroke:#B300B3;stroke-width:6.093029e-02;stroke-linecap:round;}
	.st35{display:inline;fill:none;stroke:#FFB300;stroke-width:6.093029e-02;stroke-linecap:round;}
	.st36{fill:none;stroke:#CCCCCC;stroke-width:5.742337e-02;stroke-linecap:round;stroke-dasharray:5.742337e-02,0.2297;}
	
		.st37{display:inline;fill:none;stroke:#CCCCCC;stroke-width:5.475969e-02;stroke-linecap:round;stroke-dasharray:5.475969e-02,0.219;}
	
		.st38{display:inline;fill:none;stroke:#CCCCCC;stroke-width:4.995151e-02;stroke-linecap:round;stroke-dasharray:4.995151e-02,0.1998;}
	
		.st39{display:inline;fill:none;stroke:#CCCCCC;stroke-width:5.993596e-02;stroke-linecap:round;stroke-dasharray:5.993596e-02,0.2397;}
	
		.st40{display:inline;fill:none;stroke:#CCCCCC;stroke-width:6.423818e-02;stroke-linecap:round;stroke-dasharray:6.423818e-02,0.257;}
	.st41{display:inline;fill:none;stroke:#B3B3B3;stroke-width:5.477093e-02;stroke-linecap:round;}
	.st42{display:inline;fill:none;stroke:#B3B3B3;stroke-width:5.478010e-02;stroke-linecap:round;}
	.st43{display:inline;fill:none;stroke:#B3B3B3;stroke-width:6.000000e-02;stroke-linecap:round;}
	.st44{fill:#1D1D24;}
	.st45{fill:none;stroke:#1D1D24;stroke-width:2;stroke-linecap:square;stroke-linejoin:round;}
	.st46{fill:none;stroke:#1D1D24;stroke-width:2;stroke-linecap:round;stroke-linejoin:round;}
	.st47{fill:none;stroke:#1D1D24;stroke-width:2;stroke-linejoin:round;}
	.st48{fill:none;stroke:#1D1D24;stroke-width:2;stroke-linecap:round;}
	.st49{fill:none;stroke:#1D1D24;stroke-width:4;stroke-linecap:round;stroke-linejoin:round;stroke-miterlimit:10;}
	.st50{clip-path:url(#SVGID_4_);fill:none;stroke:#1D1D24;stroke-width:2;stroke-linecap:round;stroke-linejoin:round;}
	.st51{clip-path:url(#SVGID_4_);fill:none;stroke:#1D1D24;stroke-width:2;stroke-linecap:round;}
	.st52{fill:none;stroke:#1D1D24;stroke-width:4;stroke-linecap:square;stroke-linejoin:round;}
	.st53{fill:none;stroke:#1D1D24;stroke-width:4;stroke-linecap:round;stroke-linejoin:round;}
	.st54{fill:none;stroke:#1D1D24;stroke-width:4;stroke-linejoin:round;}
	.st55{clip-path:url(#SVGID_6_);fill:none;stroke:#1D1D24;stroke-width:4;stroke-linecap:round;stroke-linejoin:round;}
	.st56{clip-path:url(#SVGID_6_);fill:none;stroke:#1D1D24;stroke-width:4;stroke-linecap:round;}
	.st57{opacity:0.66;fill:#A51033;}
	.st58{fill:none;stroke:#1D1D24;stroke-width:4.0526;stroke-linecap:square;stroke-linejoin:round;}
	.st59{fill:none;stroke:#1D1D24;stroke-width:4.0526;stroke-linejoin:round;}
	.st60{fill:none;stroke:#1D1D24;stroke-width:2.0263;stroke-linecap:square;stroke-linejoin:round;}
	.st61{fill:none;stroke:#1D1D24;stroke-width:2.0263;stroke-linejoin:round;}
	.st62{fill:none;stroke:#1D1D24;stroke-width:2;stroke-linejoin:round;stroke-miterlimit:10;}
	.st63{fill:none;stroke:#1D1D24;stroke-width:2;stroke-linecap:square;stroke-linejoin:round;stroke-miterlimit:10;}
	.st64{fill:none;stroke:#1D1D24;stroke-width:4;stroke-linejoin:round;stroke-miterlimit:10;}
	.st65{fill:none;stroke:#1D1D24;stroke-width:4;stroke-linecap:square;stroke-linejoin:round;stroke-miterlimit:10;}
	.st66{clip-path:url(#SVGID_8_);}
	.st67{clip-path:url(#SVGID_10_);}
	.st68{clip-path:url(#SVGID_12_);}
	.st69{fill:none;stroke:#1D1D24;stroke-width:4;stroke-miterlimit:10;}
	.st70{fill:none;stroke:#1D1D24;stroke-width:2;stroke-linecap:round;stroke-miterlimit:10;}
	.st71{fill:none;stroke:#1D1D24;stroke-width:4;stroke-linecap:round;stroke-miterlimit:10;}
	.st72{fill:none;stroke:#1D1D24;stroke-width:2.1909;stroke-linecap:round;stroke-linejoin:round;stroke-miterlimit:10;}
	.st73{fill:none;stroke:#1D1D24;stroke-width:2;stroke-linecap:square;stroke-miterlimit:10;}
	.st74{fill:none;stroke:#1D1D24;stroke-width:2;}
	.st75{fill:none;stroke:#1D1D24;stroke-width:4;}
	.st76{fill:none;stroke:#1D1D24;stroke-width:4;stroke-linecap:round;}
	.st77{fill:none;stroke:#1D1D24;stroke-width:2;stroke-linecap:square;}
	.st78{fill:none;stroke:#1D1D24;stroke-width:4;stroke-linecap:square;}
	.st79{fill:none;}
	.st80{fill:none;stroke:#1D1D24;stroke-width:4;stroke-linecap:square;stroke-miterlimit:10;}
</style>
<g class="st0">
</g>
<g class="st0">
	<g class="st1">
		<path class="st23" d="M87.1,91H8.9C6.8,91,5,89.2,5,87.1V8.9C5,6.8,6.8,5,8.9,5h78.2C89.2,5,91,6.8,91,8.9v78.2
			C91,89.2,89.2,91,87.1,91z"/>
		<path class="st24" d="M77.9,95H18.1c-2.3,0-4.1-1.8-4.1-4.1V5.1C14,2.8,15.8,1,18.1,1h59.8C80.2,1,82,2.8,82,5.1v85.8
			C82,93.2,80.2,95,77.9,95z"/>
		<path class="st25" d="M1,77.9V18.1C1,15.8,2.8,14,5.1,14h85.8c2.3,0,4.1,1.8,4.1,4.1v59.8c0,2.3-1.8,4.1-4.1,4.1H5.1
			C2.8,82,1,80.2,1,77.9z"/>
		<g>
			<line class="st20" x1="5.2" y1="5.2" x2="90.7" y2="90.7"/>
		</g>
		<line class="st20" x1="5.2" y1="90.7" x2="90.7" y2="5.2"/>
		<circle class="st20" cx="48" cy="48" r="13"/>
		<circle class="st20" cx="48" cy="48" r="22"/>
		<circle class="st20" cx="48" cy="48" r="31"/>
		<line class="st26" x1="48" y1="5.2" x2="48" y2="90.7"/>
		<line class="st26" x1="5" y1="48" x2="90.5" y2="48"/>
		<circle class="st26" cx="48" cy="48" r="43"/>
	</g>
</g>
<g>
	<g>
		<line class="st49" x1="30" y1="26" x2="30" y2="64"/>
		<line class="st49" x1="18" y1="64" x2="18" y2="26"/>
		<polyline class="st64" points="88,58 88,84 8,84 8,58 		"/>
		<polyline class="st49" points="26,18 26,12 70,12 70,18 		"/>
		<line class="st65" x1="66" y1="64" x2="30" y2="64"/>
		<path class="st49" d="M16.6,63.5C9.3,61.9,4,54.3,4,47.5V27.6c0-2,1.9-3.6,4.2-3.6h79.6c2.3,0,4.2,1.6,4.2,3.6v19.9
			c0,6.7-5.3,14.4-12.6,16"/>
		<line class="st49" x1="78" y1="24" x2="78" y2="62"/>
		<line class="st49" x1="66" y1="62" x2="66" y2="24"/>
		<path class="st49" d="M72,58L72,58c3.3,0,6,2.7,6,6v4c0,3.3-2.7,6-6,6h0c-3.3,0-6-2.7-6-6v-4C66,60.7,68.7,58,72,58z"/>
		<path class="st49" d="M24,58L24,58c3.3,0,6,2.7,6,6v4c0,3.3-2.7,6-6,6h0c-3.3,0-6-2.7-6-6v-4C18,60.7,20.7,58,24,58z"/>
	</g>
</g>
</svg>
